<svg xmlns="http://www.w3.org/2000/svg" xmlns:xlink="http://www.w3.org/1999/xlink" width="500" zoomAndPan="magnify" viewBox="0 0 375 374.999991" height="500" preserveAspectRatio="xMidYMid meet" version="1.0"><defs><g/><clipPath id="id1"><path d="M 122 59 L 282 59 L 282 229 L 122 229 Z M 122 59 " clip-rule="nonzero"/></clipPath><clipPath id="id2"><path d="M 117.726562 31.726562 L 313.039062 93.175781 L 257.441406 269.886719 L 62.128906 208.433594 Z M 117.726562 31.726562 " clip-rule="nonzero"/></clipPath><clipPath id="id3"><path d="M 117.726562 31.726562 L 313.039062 93.175781 L 257.441406 269.886719 L 62.128906 208.433594 Z M 117.726562 31.726562 " clip-rule="nonzero"/></clipPath><clipPath id="id4"><path d="M 98 47 L 273 47 L 273 251 L 98 251 Z M 98 47 " clip-rule="nonzero"/></clipPath><clipPath id="id5"><path d="M 117.726562 31.726562 L 313.039062 93.175781 L 257.441406 269.886719 L 62.128906 208.433594 Z M 117.726562 31.726562 " clip-rule="nonzero"/></clipPath><clipPath id="id6"><path d="M 117.726562 31.726562 L 313.039062 93.175781 L 257.441406 269.886719 L 62.128906 208.433594 Z M 117.726562 31.726562 " clip-rule="nonzero"/></clipPath><clipPath id="id7"><path d="M 220 199 L 239 199 L 239 226 L 220 226 Z M 220 199 " clip-rule="nonzero"/></clipPath><clipPath id="id8"><path d="M 215.101562 206.015625 L 250.777344 192.222656 L 271.066406 244.683594 L 235.390625 258.480469 Z M 215.101562 206.015625 " clip-rule="nonzero"/></clipPath><clipPath id="id9"><path d="M 215.101562 206.015625 L 250.777344 192.222656 L 271.066406 244.683594 L 235.390625 258.480469 Z M 215.101562 206.015625 " clip-rule="nonzero"/></clipPath><clipPath id="id10"><path d="M 223 197 L 266 197 L 266 253 L 223 253 Z M 223 197 " clip-rule="nonzero"/></clipPath><clipPath id="id11"><path d="M 215.101562 206.015625 L 250.777344 192.222656 L 271.066406 244.683594 L 235.390625 258.480469 Z M 215.101562 206.015625 " clip-rule="nonzero"/></clipPath><clipPath id="id12"><path d="M 215.101562 206.015625 L 250.777344 192.222656 L 271.066406 244.683594 L 235.390625 258.480469 Z M 215.101562 206.015625 " clip-rule="nonzero"/></clipPath><clipPath id="id13"><path d="M 237 213 L 244 213 L 244 225 L 237 225 Z M 237 213 " clip-rule="nonzero"/></clipPath><clipPath id="id14"><path d="M 215.101562 206.015625 L 250.777344 192.222656 L 271.066406 244.683594 L 235.390625 258.480469 Z M 215.101562 206.015625 " clip-rule="nonzero"/></clipPath><clipPath id="id15"><path d="M 215.101562 206.015625 L 250.777344 192.222656 L 271.066406 244.683594 L 235.390625 258.480469 Z M 215.101562 206.015625 " clip-rule="nonzero"/></clipPath></defs><g clip-path="url(#id1)"><g clip-path="url(#id2)"><g clip-path="url(#id3)"><path fill="#f8dc4a" d="M 238.261719 218.867188 L 252.3125 112.769531 C 254.15625 104.257812 251.59375 99.742188 245.382812 98.65625 L 238.21875 96.972656 C 237.914062 89.757812 235.476562 83.042969 231.691406 77.003906 C 226.238281 69.039062 217.976562 62.765625 207.984375 60.1875 C 197.640625 57.769531 187.457031 59.414062 178.96875 63.859375 C 172.441406 67.488281 166.753906 72.816406 163.195312 79.652344 L 157.34375 78.378906 C 148.820312 75.695312 143.460938 79.125 141.492188 88.996094 L 130.234375 123.820312 C 125.429688 108.375 124.15625 93.503906 126.234375 80.519531 C 113.890625 116.140625 133.105469 181.570312 174.734375 187.550781 C 182.390625 188.523438 187.664062 185.367188 189.539062 179.410156 C 191.730469 172.445312 188.382812 166.8125 179.140625 159.09375 C 166.605469 148.332031 160.660156 136.503906 164.566406 124.09375 C 169.53125 108.3125 185.523438 100.007812 206.214844 106.519531 C 215.285156 109.375 221.605469 113.632812 225.535156 117.410156 L 216.953125 131.1875 C 214.0625 128.574219 208.863281 124.363281 201.101562 121.921875 C 191.273438 118.828125 185.234375 122.609375 183.609375 127.78125 C 181.417969 134.746094 185.359375 139.429688 195.285156 148.5 C 208.445312 160.027344 212.652344 171.007812 208.660156 183.6875 C 204.269531 197.644531 191.699219 205.921875 174.527344 203.628906 C 183.328125 210.941406 192.945312 217.375 202.96875 221.664062 C 206.785156 223.132812 210.566406 224.625 214.515625 225.566406 C 232.972656 231.105469 250.535156 229.511719 263.835938 219.761719 C 272.894531 212.652344 278.898438 202.609375 281.605469 190.394531 C 278.316406 198.183594 273.375 204.851562 266.925781 209.941406 C 258.796875 215.902344 248.804688 218.742188 238.25 218.796875 Z M 236.84375 106.765625 C 237.40625 104.972656 236.265625 103.175781 234.441406 102.601562 C 232.644531 102.035156 230.933594 102.902344 230.359375 104.726562 C 229.796875 106.519531 230.664062 108.230469 232.488281 108.804688 C 234.316406 109.378906 236.269531 108.589844 236.84375 106.765625 Z M 166.023438 89.597656 C 166.59375 87.773438 165.445312 86.007812 163.621094 85.433594 C 161.792969 84.855469 160.113281 85.730469 159.539062 87.558594 C 158.964844 89.382812 159.753906 91.335938 161.582031 91.910156 C 163.378906 92.472656 165.449219 91.421875 166.023438 89.597656 Z M 232.609375 95.773438 L 168.785156 80.808594 C 172.050781 75.851562 176.507812 71.574219 181.617188 68.9375 C 189.097656 65.042969 197.839844 63.515625 206.523438 65.679688 C 215.238281 67.851562 222.351562 73.199219 226.925781 80.351562 C 230.089844 84.753906 232.078125 90.226562 232.609375 95.773438 Z M 232.609375 95.773438 " fill-opacity="1" fill-rule="evenodd"/></g></g></g><g clip-path="url(#id4)"><g clip-path="url(#id5)"><g clip-path="url(#id6)"><path fill="#696666" d="M 262.019531 232.023438 C 231.011719 255.519531 176.46875 235.519531 140.398438 187.507812 C 104.332031 139.5 100.304688 81.71875 131.582031 58.308594 C 141.324219 50.84375 153.378906 47.820312 166.496094 48.539062 C 149.015625 45.3125 132.769531 48.15625 120.148438 57.550781 C 92.1875 78.597656 91.214844 126.015625 115.222656 170.796875 L 103.832031 206.148438 C 99.980469 217.4375 103.796875 223.484375 115.125 224.472656 L 166.765625 229.359375 C 198.644531 251.886719 234.226562 257.101562 257.289062 239.925781 C 263.625 235.101562 268.414062 228.921875 272.074219 221.851562 C 269.144531 225.742188 266.007812 229.335938 262.039062 232.0625 Z M 262.019531 232.023438 " fill-opacity="1" fill-rule="evenodd"/></g></g></g><g clip-path="url(#id7)"><g clip-path="url(#id8)"><g clip-path="url(#id9)"><path fill="#5d5858" d="M 238.125 219.863281 L 236.339844 215.25 C 236.109375 214.660156 236.5 213.929688 237.246094 213.367188 L 231.898438 199.539062 C 222.738281 203.660156 218.113281 213.753906 221.53125 222.59375 L 222.773438 225.800781 Z M 238.125 219.863281 " fill-opacity="1" fill-rule="nonzero"/></g></g></g><g clip-path="url(#id10)"><g clip-path="url(#id11)"><g clip-path="url(#id12)"><path fill="#5d5858" d="M 233.6875 198.832031 L 239.015625 212.605469 C 240.085938 212.410156 241.027344 212.679688 241.28125 213.339844 L 243.066406 217.953125 L 258.296875 212.0625 L 258.996094 213.871094 L 243.765625 219.761719 L 245.144531 223.328125 C 245.457031 224.140625 244.609375 225.230469 243.242188 225.757812 C 241.875 226.285156 240.515625 226.054688 240.203125 225.238281 L 238.820312 221.671875 L 223.472656 227.609375 L 228.988281 241.875 C 232.535156 251.042969 243.386719 255.390625 253.226562 251.582031 C 263.074219 247.777344 268.175781 237.257812 264.632812 228.089844 L 257.175781 208.808594 C 253.71875 199.875 243.324219 195.523438 233.6875 198.832031 Z M 233.6875 198.832031 " fill-opacity="1" fill-rule="nonzero"/></g></g></g><g clip-path="url(#id13)"><g clip-path="url(#id14)"><g clip-path="url(#id15)"><path fill="#5d5858" d="M 237.871094 215.714844 C 237.613281 215.050781 237.984375 214.289062 238.703125 214.011719 C 239.417969 213.734375 240.207031 214.046875 240.460938 214.714844 L 243.613281 222.859375 C 243.871094 223.523438 243.5 224.285156 242.78125 224.5625 C 242.0625 224.839844 241.277344 224.527344 241.019531 223.863281 Z M 237.871094 215.714844 " fill-opacity="1" fill-rule="nonzero"/></g></g></g><g fill="#696666" fill-opacity="1"><g transform="translate(18.477632, 319.817344)"><g><path d="M 32.5 -38.1875 C 35.101562 -38.1875 37.367188 -37.789062 39.296875 -37 C 41.222656 -36.21875 42.691406 -35.148438 43.703125 -33.796875 C 44.722656 -32.441406 45.234375 -30.882812 45.234375 -29.125 C 45.234375 -28.125 45.097656 -27.207031 44.828125 -26.375 C 43.722656 -22.507812 40.53125 -20.0625 35.25 -19.03125 C 37.09375 -18.5 38.546875 -17.609375 39.609375 -16.359375 C 40.679688 -15.117188 41.21875 -13.582031 41.21875 -11.75 C 41.21875 -10.90625 41.066406 -9.910156 40.765625 -8.765625 C 39.921875 -5.785156 38.226562 -3.578125 35.6875 -2.140625 C 33.144531 -0.710938 29.539062 0 24.875 0 L 1.03125 0 C 0.226562 0 -0.390625 -0.128906 -0.828125 -0.390625 C -1.265625 -0.660156 -1.484375 -1.023438 -1.484375 -1.484375 C -1.484375 -1.710938 -1.425781 -1.960938 -1.3125 -2.234375 C -1.164062 -2.648438 -0.921875 -2.972656 -0.578125 -3.203125 C -0.234375 -3.429688 -0.0195312 -3.566406 0.0625 -3.609375 C 0.664062 -3.992188 1.160156 -4.382812 1.546875 -4.78125 C 1.929688 -5.1875 2.253906 -5.847656 2.515625 -6.765625 L 9.515625 -31.46875 C 9.671875 -31.96875 9.75 -32.445312 9.75 -32.90625 C 9.75 -33.320312 9.679688 -33.671875 9.546875 -33.953125 C 9.410156 -34.242188 9.226562 -34.582031 9 -34.96875 C 8.65625 -35.46875 8.484375 -35.867188 8.484375 -36.171875 C 8.484375 -36.285156 8.519531 -36.5 8.59375 -36.8125 C 8.75 -37.300781 9.082031 -37.648438 9.59375 -37.859375 C 10.113281 -38.078125 10.910156 -38.1875 11.984375 -38.1875 Z M 29.921875 -27.6875 C 30.191406 -28.53125 30.328125 -29.316406 30.328125 -30.046875 C 30.328125 -32.023438 29.195312 -33.015625 26.9375 -33.015625 L 24.359375 -33.015625 L 21.328125 -22.296875 L 23.84375 -22.296875 C 25.445312 -22.296875 26.71875 -22.6875 27.65625 -23.46875 C 28.59375 -24.257812 29.347656 -25.664062 29.921875 -27.6875 Z M 25.734375 -10.828125 C 26.003906 -11.742188 26.140625 -12.585938 26.140625 -13.359375 C 26.140625 -15.421875 24.957031 -16.453125 22.59375 -16.453125 L 19.71875 -16.453125 L 16.453125 -5.15625 L 19.375 -5.15625 C 21.019531 -5.15625 22.335938 -5.566406 23.328125 -6.390625 C 24.328125 -7.210938 25.128906 -8.691406 25.734375 -10.828125 Z M 25.734375 -10.828125 "/></g></g></g><g fill="#696666" fill-opacity="1"><g transform="translate(63.015176, 319.817344)"><g><path d="M 18.28125 -42.359375 C 20.5 -42.359375 22.132812 -41.9375 23.1875 -41.09375 C 24.238281 -40.257812 24.765625 -39.117188 24.765625 -37.671875 C 24.765625 -36.828125 24.628906 -36.003906 24.359375 -35.203125 L 15.359375 -5.96875 C 15.242188 -5.507812 15.1875 -5.109375 15.1875 -4.765625 C 15.1875 -4.265625 15.28125 -3.867188 15.46875 -3.578125 C 15.664062 -3.296875 15.9375 -3.019531 16.28125 -2.75 C 16.550781 -2.476562 16.742188 -2.253906 16.859375 -2.078125 C 16.972656 -1.910156 16.988281 -1.695312 16.90625 -1.4375 C 16.71875 -0.9375 16.335938 -0.570312 15.765625 -0.34375 C 15.191406 -0.113281 14.3125 0 13.125 0 L 0.0625 0 C -0.9375 0 -1.664062 -0.160156 -2.125 -0.484375 C -2.582031 -0.804688 -2.734375 -1.238281 -2.578125 -1.78125 C -2.421875 -2.238281 -2.019531 -2.640625 -1.375 -2.984375 C -0.800781 -3.285156 -0.328125 -3.644531 0.046875 -4.0625 C 0.429688 -4.488281 0.757812 -5.160156 1.03125 -6.078125 L 9.75 -34.6875 C 9.863281 -35.03125 9.921875 -35.316406 9.921875 -35.546875 C 9.921875 -35.960938 9.8125 -36.304688 9.59375 -36.578125 C 9.382812 -36.847656 9.109375 -37.113281 8.765625 -37.375 C 8.390625 -37.6875 8.113281 -37.957031 7.9375 -38.1875 C 7.769531 -38.414062 7.742188 -38.71875 7.859375 -39.09375 C 8.085938 -39.976562 9.289062 -40.742188 11.46875 -41.390625 C 13.644531 -42.035156 15.914062 -42.359375 18.28125 -42.359375 Z M 18.28125 -42.359375 "/></g></g></g><g fill="#696666" fill-opacity="1"><g transform="translate(84.911454, 319.817344)"><g><path d="M 22.1875 -30.328125 C 27.382812 -30.328125 31.210938 -29.273438 33.671875 -27.171875 C 36.140625 -25.066406 37.375 -22.316406 37.375 -18.921875 C 37.375 -17.773438 37.222656 -16.492188 36.921875 -15.078125 C 36.191406 -11.941406 34.832031 -9.195312 32.84375 -6.84375 C 30.863281 -4.5 28.429688 -2.6875 25.546875 -1.40625 C 22.660156 -0.125 19.535156 0.515625 16.171875 0.515625 C 10.859375 0.515625 6.929688 -0.539062 4.390625 -2.65625 C 1.847656 -4.78125 0.578125 -7.601562 0.578125 -11.125 C 0.578125 -12.3125 0.726562 -13.628906 1.03125 -15.078125 C 1.757812 -18.054688 3.144531 -20.703125 5.1875 -23.015625 C 7.226562 -25.328125 9.726562 -27.125 12.6875 -28.40625 C 15.65625 -29.6875 18.820312 -30.328125 22.1875 -30.328125 Z M 22.015625 -25.21875 C 21.210938 -25.21875 20.359375 -24.5 19.453125 -23.0625 C 18.554688 -21.632812 17.5 -18.9375 16.28125 -14.96875 C 15.0625 -10.988281 14.453125 -8.195312 14.453125 -6.59375 C 14.453125 -5.75 14.582031 -5.179688 14.84375 -4.890625 C 15.113281 -4.609375 15.476562 -4.46875 15.9375 -4.46875 C 16.738281 -4.394531 17.566406 -5.082031 18.421875 -6.53125 C 19.285156 -7.988281 20.367188 -10.816406 21.671875 -15.015625 C 22.859375 -18.722656 23.453125 -21.421875 23.453125 -23.109375 C 23.453125 -23.910156 23.328125 -24.460938 23.078125 -24.765625 C 22.828125 -25.066406 22.472656 -25.21875 22.015625 -25.21875 Z M 22.015625 -25.21875 "/></g></g></g><g fill="#696666" fill-opacity="1"><g transform="translate(123.430438, 319.817344)"><g><path d="M 20.8125 -30.609375 C 23.144531 -30.609375 25.1875 -30.273438 26.9375 -29.609375 C 28.695312 -28.941406 30.0625 -28.023438 31.03125 -26.859375 C 32.007812 -25.691406 32.5 -24.398438 32.5 -22.984375 C 32.5 -21.460938 31.972656 -20.203125 30.921875 -19.203125 C 29.878906 -18.210938 28.457031 -17.71875 26.65625 -17.71875 C 24.820312 -17.71875 23.390625 -18.1875 22.359375 -19.125 C 21.328125 -20.0625 20.8125 -21.332031 20.8125 -22.9375 C 20.8125 -23.695312 20.925781 -24.5 21.15625 -25.34375 C 19.550781 -24.914062 18.125 -24.082031 16.875 -22.84375 C 15.632812 -21.601562 14.804688 -19.96875 14.390625 -17.9375 C 14.160156 -16.789062 14.046875 -15.757812 14.046875 -14.84375 C 14.046875 -12.78125 14.617188 -11.210938 15.765625 -10.140625 C 16.910156 -9.078125 18.554688 -8.546875 20.703125 -8.546875 C 21.921875 -8.546875 22.96875 -8.664062 23.84375 -8.90625 C 24.726562 -9.15625 25.628906 -9.492188 26.546875 -9.921875 C 27.304688 -10.296875 27.859375 -10.484375 28.203125 -10.484375 C 28.429688 -10.484375 28.582031 -10.4375 28.65625 -10.34375 C 28.738281 -10.25 28.78125 -10.050781 28.78125 -9.75 C 28.820312 -8.332031 28.238281 -6.847656 27.03125 -5.296875 C 25.820312 -3.753906 24.15625 -2.457031 22.03125 -1.40625 C 19.914062 -0.351562 17.539062 0.171875 14.90625 0.171875 C 12.15625 0.171875 9.71875 -0.332031 7.59375 -1.34375 C 5.476562 -2.351562 3.835938 -3.804688 2.671875 -5.703125 C 1.503906 -7.597656 0.921875 -9.804688 0.921875 -12.328125 C 0.921875 -13.515625 1.070312 -14.832031 1.375 -16.28125 C 2.40625 -21.019531 4.6875 -24.59375 8.21875 -27 C 11.757812 -29.40625 15.957031 -30.609375 20.8125 -30.609375 Z M 20.8125 -30.609375 "/></g></g></g><g fill="#696666" fill-opacity="1"><g transform="translate(155.414968, 319.817344)"><g><path d="M 34 -30.328125 C 36.175781 -30.328125 37.921875 -29.722656 39.234375 -28.515625 C 40.554688 -27.316406 41.21875 -25.859375 41.21875 -24.140625 C 41.21875 -22.304688 40.660156 -20.867188 39.546875 -19.828125 C 38.441406 -18.796875 36.992188 -18.28125 35.203125 -18.28125 C 33.597656 -18.28125 32.351562 -18.691406 31.46875 -19.515625 C 30.59375 -20.335938 30.175781 -21.265625 30.21875 -22.296875 C 29.832031 -22.378906 29.503906 -22.226562 29.234375 -21.84375 C 28.972656 -21.457031 28.6875 -20.710938 28.375 -19.609375 C 28.1875 -18.878906 27.820312 -18.207031 27.28125 -17.59375 C 29.882812 -17.40625 31.816406 -16.8125 33.078125 -15.8125 C 34.335938 -14.820312 34.96875 -13.546875 34.96875 -11.984375 C 34.96875 -11.210938 34.832031 -10.445312 34.5625 -9.6875 L 34.109375 -7.90625 C 34.035156 -7.71875 34 -7.472656 34 -7.171875 C 34 -6.628906 34.242188 -6.359375 34.734375 -6.359375 C 35.191406 -6.359375 35.582031 -6.554688 35.90625 -6.953125 C 36.238281 -7.359375 36.460938 -7.5625 36.578125 -7.5625 C 36.765625 -7.5625 36.914062 -7.4375 37.03125 -7.1875 C 37.144531 -6.945312 37.203125 -6.65625 37.203125 -6.3125 C 37.242188 -5.195312 36.910156 -4.113281 36.203125 -3.0625 C 35.492188 -2.007812 34.421875 -1.148438 32.984375 -0.484375 C 31.554688 0.179688 29.828125 0.515625 27.796875 0.515625 C 25.359375 0.515625 23.328125 -0.09375 21.703125 -1.3125 C 20.078125 -2.539062 19.265625 -4.148438 19.265625 -6.140625 C 19.265625 -6.859375 19.414062 -7.675781 19.71875 -8.59375 L 20.8125 -11.46875 C 21 -12.15625 21.09375 -12.648438 21.09375 -12.953125 C 21.09375 -13.453125 20.929688 -13.816406 20.609375 -14.046875 C 20.285156 -14.273438 19.78125 -14.390625 19.09375 -14.390625 L 17.9375 -14.390625 L 15.359375 -5.96875 C 15.242188 -5.507812 15.1875 -5.109375 15.1875 -4.765625 C 15.1875 -4.265625 15.28125 -3.867188 15.46875 -3.578125 C 15.664062 -3.296875 15.9375 -3.019531 16.28125 -2.75 C 16.550781 -2.476562 16.742188 -2.253906 16.859375 -2.078125 C 16.972656 -1.910156 16.988281 -1.695312 16.90625 -1.4375 C 16.71875 -0.9375 16.335938 -0.570312 15.765625 -0.34375 C 15.191406 -0.113281 14.3125 0 13.125 0 L 0.0625 0 C -0.9375 0 -1.664062 -0.160156 -2.125 -0.484375 C -2.582031 -0.804688 -2.734375 -1.238281 -2.578125 -1.78125 C -2.421875 -2.238281 -2.019531 -2.640625 -1.375 -2.984375 C -0.800781 -3.285156 -0.328125 -3.644531 0.046875 -4.0625 C 0.429688 -4.488281 0.757812 -5.160156 1.03125 -6.078125 L 9.75 -34.6875 C 9.863281 -35.03125 9.921875 -35.316406 9.921875 -35.546875 C 9.921875 -35.960938 9.8125 -36.304688 9.59375 -36.578125 C 9.382812 -36.847656 9.109375 -37.113281 8.765625 -37.375 C 8.390625 -37.6875 8.113281 -37.957031 7.9375 -38.1875 C 7.769531 -38.414062 7.742188 -38.71875 7.859375 -39.09375 C 8.085938 -39.976562 9.289062 -40.742188 11.46875 -41.390625 C 13.644531 -42.035156 15.914062 -42.359375 18.28125 -42.359375 C 20.5 -42.359375 22.125 -41.945312 23.15625 -41.125 C 24.1875 -40.3125 24.703125 -39.175781 24.703125 -37.71875 C 24.703125 -36.84375 24.570312 -36.003906 24.3125 -35.203125 L 19.3125 -18.921875 L 21.21875 -18.921875 C 21.976562 -18.921875 22.597656 -19.148438 23.078125 -19.609375 C 23.554688 -20.066406 23.925781 -20.734375 24.1875 -21.609375 C 25.144531 -24.441406 26.390625 -26.601562 27.921875 -28.09375 C 29.453125 -29.582031 31.476562 -30.328125 34 -30.328125 Z M 34 -30.328125 "/></g></g></g><g fill="#f8dc4a" fill-opacity="1"><g transform="translate(196.381739, 319.817344)"><g><path d="M 21.4375 -38.53125 C 23.582031 -38.53125 25.5625 -38.269531 27.375 -37.75 C 29.1875 -37.238281 31.03125 -36.425781 32.90625 -35.3125 L 34.21875 -36.40625 C 35.132812 -37.132812 35.890625 -37.628906 36.484375 -37.890625 C 37.078125 -38.160156 37.757812 -38.296875 38.53125 -38.296875 C 39.445312 -38.296875 40.171875 -38.09375 40.703125 -37.6875 C 41.234375 -37.289062 41.5 -36.707031 41.5 -35.9375 C 41.5 -35.632812 41.441406 -35.3125 41.328125 -34.96875 L 38.921875 -27.0625 C 38.660156 -26.144531 38.328125 -25.492188 37.921875 -25.109375 C 37.523438 -24.722656 36.921875 -24.53125 36.109375 -24.53125 C 35.273438 -24.53125 34.539062 -24.785156 33.90625 -25.296875 C 33.28125 -25.816406 32.296875 -26.878906 30.953125 -28.484375 C 29.617188 -30.015625 28.40625 -31.09375 27.3125 -31.71875 C 26.226562 -32.351562 25.113281 -32.671875 23.96875 -32.671875 C 23.125 -32.671875 22.414062 -32.394531 21.84375 -31.84375 C 21.269531 -31.289062 20.984375 -30.613281 20.984375 -29.8125 C 20.984375 -28.894531 21.441406 -28.039062 22.359375 -27.25 C 23.273438 -26.46875 24.707031 -25.488281 26.65625 -24.3125 C 28.644531 -23.125 30.285156 -22.050781 31.578125 -21.09375 C 32.878906 -20.132812 33.988281 -18.945312 34.90625 -17.53125 C 35.820312 -16.125 36.28125 -14.503906 36.28125 -12.671875 C 36.28125 -11.484375 36.09375 -10.296875 35.71875 -9.109375 C 34.800781 -6.054688 33.019531 -3.734375 30.375 -2.140625 C 27.738281 -0.554688 24.664062 0.234375 21.15625 0.234375 C 18.519531 0.234375 16.300781 -0.0703125 14.5 -0.6875 C 12.707031 -1.300781 10.875 -2.332031 9 -3.78125 L 6.9375 -2.0625 C 5.976562 -1.257812 5.191406 -0.710938 4.578125 -0.421875 C 3.972656 -0.140625 3.285156 0 2.515625 0 C 1.640625 0 0.941406 -0.207031 0.421875 -0.625 C -0.0859375 -1.050781 -0.34375 -1.625 -0.34375 -2.34375 C -0.34375 -2.726562 -0.265625 -3.128906 -0.109375 -3.546875 L 2.6875 -12.09375 C 3 -13.09375 3.421875 -13.800781 3.953125 -14.21875 C 4.492188 -14.632812 5.179688 -14.84375 6.015625 -14.84375 C 6.898438 -14.84375 7.691406 -14.535156 8.390625 -13.921875 C 9.097656 -13.316406 10.023438 -12.210938 11.171875 -10.609375 C 12.398438 -8.847656 13.539062 -7.625 14.59375 -6.9375 C 15.644531 -6.25 16.894531 -5.90625 18.34375 -5.90625 C 19.375 -5.90625 20.164062 -6.066406 20.71875 -6.390625 C 21.28125 -6.710938 21.675781 -7.238281 21.90625 -7.96875 C 21.976562 -8.15625 22.015625 -8.441406 22.015625 -8.828125 C 22.015625 -9.742188 21.570312 -10.582031 20.6875 -11.34375 C 19.8125 -12.113281 18.457031 -13.035156 16.625 -14.109375 C 14.675781 -15.285156 13.085938 -16.34375 11.859375 -17.28125 C 10.640625 -18.21875 9.582031 -19.394531 8.6875 -20.8125 C 7.789062 -22.226562 7.34375 -23.890625 7.34375 -25.796875 C 7.34375 -27.128906 7.550781 -28.445312 7.96875 -29.75 C 8.769531 -32.382812 10.410156 -34.503906 12.890625 -36.109375 C 15.378906 -37.722656 18.226562 -38.53125 21.4375 -38.53125 Z M 21.4375 -38.53125 "/></g></g></g><g fill="#f8dc4a" fill-opacity="1"><g transform="translate(236.792254, 319.817344)"><g><path d="M 35.140625 -7.90625 C 35.066406 -7.757812 35.03125 -7.53125 35.03125 -7.21875 C 35.03125 -6.957031 35.09375 -6.75 35.21875 -6.59375 C 35.351562 -6.4375 35.535156 -6.359375 35.765625 -6.359375 C 36.222656 -6.359375 36.613281 -6.554688 36.9375 -6.953125 C 37.269531 -7.359375 37.492188 -7.5625 37.609375 -7.5625 C 37.796875 -7.5625 37.945312 -7.4375 38.0625 -7.1875 C 38.175781 -6.945312 38.234375 -6.65625 38.234375 -6.3125 C 38.273438 -5.195312 37.910156 -4.113281 37.140625 -3.0625 C 36.378906 -2.007812 35.265625 -1.148438 33.796875 -0.484375 C 32.328125 0.179688 30.554688 0.515625 28.484375 0.515625 C 25.960938 0.515625 23.957031 -0.0664062 22.46875 -1.234375 C 20.976562 -2.398438 20.210938 -3.957031 20.171875 -5.90625 C 20.171875 -7.320312 20.519531 -8.90625 21.21875 -10.65625 L 24.359375 -18.921875 C 24.554688 -19.410156 24.65625 -19.8125 24.65625 -20.125 C 24.65625 -20.625 24.488281 -21.015625 24.15625 -21.296875 C 23.832031 -21.585938 23.441406 -21.734375 22.984375 -21.734375 C 22.265625 -21.734375 21.53125 -21.394531 20.78125 -20.71875 C 20.03125 -20.050781 19.425781 -18.972656 18.96875 -17.484375 L 18.96875 -17.59375 L 15.359375 -5.96875 C 15.242188 -5.507812 15.1875 -5.109375 15.1875 -4.765625 C 15.1875 -4.265625 15.28125 -3.867188 15.46875 -3.578125 C 15.664062 -3.296875 15.9375 -3.019531 16.28125 -2.75 C 16.550781 -2.476562 16.742188 -2.253906 16.859375 -2.078125 C 16.972656 -1.910156 16.988281 -1.695312 16.90625 -1.4375 C 16.71875 -0.9375 16.335938 -0.570312 15.765625 -0.34375 C 15.191406 -0.113281 14.3125 0 13.125 0 L 0.0625 0 C -0.9375 0 -1.664062 -0.160156 -2.125 -0.484375 C -2.582031 -0.804688 -2.734375 -1.238281 -2.578125 -1.78125 C -2.421875 -2.238281 -2.019531 -2.640625 -1.375 -2.984375 C -0.800781 -3.285156 -0.328125 -3.644531 0.046875 -4.0625 C 0.429688 -4.488281 0.757812 -5.160156 1.03125 -6.078125 L 9.75 -34.6875 C 9.863281 -35.03125 9.921875 -35.316406 9.921875 -35.546875 C 9.921875 -35.960938 9.8125 -36.304688 9.59375 -36.578125 C 9.382812 -36.847656 9.109375 -37.113281 8.765625 -37.375 C 8.390625 -37.6875 8.113281 -37.957031 7.9375 -38.1875 C 7.769531 -38.414062 7.742188 -38.71875 7.859375 -39.09375 C 8.085938 -39.976562 9.289062 -40.742188 11.46875 -41.390625 C 13.644531 -42.035156 15.914062 -42.359375 18.28125 -42.359375 C 20.5 -42.359375 22.132812 -41.9375 23.1875 -41.09375 C 24.238281 -40.257812 24.765625 -39.117188 24.765625 -37.671875 C 24.765625 -36.828125 24.628906 -36.003906 24.359375 -35.203125 L 21.265625 -25.109375 C 22.753906 -27.054688 24.328125 -28.410156 25.984375 -29.171875 C 27.648438 -29.941406 29.460938 -30.328125 31.421875 -30.328125 C 33.742188 -30.328125 35.625 -29.617188 37.0625 -28.203125 C 38.5 -26.785156 39.21875 -24.953125 39.21875 -22.703125 C 39.21875 -21.515625 39.023438 -20.347656 38.640625 -19.203125 Z M 35.140625 -7.90625 "/></g></g></g><g fill="#f8dc4a" fill-opacity="1"><g transform="translate(278.406492, 319.817344)"><g><path d="M 22.1875 -30.328125 C 27.382812 -30.328125 31.210938 -29.273438 33.671875 -27.171875 C 36.140625 -25.066406 37.375 -22.316406 37.375 -18.921875 C 37.375 -17.773438 37.222656 -16.492188 36.921875 -15.078125 C 36.191406 -11.941406 34.832031 -9.195312 32.84375 -6.84375 C 30.863281 -4.5 28.429688 -2.6875 25.546875 -1.40625 C 22.660156 -0.125 19.535156 0.515625 16.171875 0.515625 C 10.859375 0.515625 6.929688 -0.539062 4.390625 -2.65625 C 1.847656 -4.78125 0.578125 -7.601562 0.578125 -11.125 C 0.578125 -12.3125 0.726562 -13.628906 1.03125 -15.078125 C 1.757812 -18.054688 3.144531 -20.703125 5.1875 -23.015625 C 7.226562 -25.328125 9.726562 -27.125 12.6875 -28.40625 C 15.65625 -29.6875 18.820312 -30.328125 22.1875 -30.328125 Z M 22.015625 -25.21875 C 21.210938 -25.21875 20.359375 -24.5 19.453125 -23.0625 C 18.554688 -21.632812 17.5 -18.9375 16.28125 -14.96875 C 15.0625 -10.988281 14.453125 -8.195312 14.453125 -6.59375 C 14.453125 -5.75 14.582031 -5.179688 14.84375 -4.890625 C 15.113281 -4.609375 15.476562 -4.46875 15.9375 -4.46875 C 16.738281 -4.394531 17.566406 -5.082031 18.421875 -6.53125 C 19.285156 -7.988281 20.367188 -10.816406 21.671875 -15.015625 C 22.859375 -18.722656 23.453125 -21.421875 23.453125 -23.109375 C 23.453125 -23.910156 23.328125 -24.460938 23.078125 -24.765625 C 22.828125 -25.066406 22.472656 -25.21875 22.015625 -25.21875 Z M 22.015625 -25.21875 "/></g></g></g><g fill="#f8dc4a" fill-opacity="1"><g transform="translate(316.925476, 319.817344)"><g><path d="M 29.984375 -30.5625 C 32.921875 -30.5625 35.226562 -29.582031 36.90625 -27.625 C 38.59375 -25.675781 39.4375 -23.019531 39.4375 -19.65625 C 39.4375 -17.863281 39.191406 -15.972656 38.703125 -13.984375 C 37.554688 -9.242188 35.414062 -5.640625 32.28125 -3.171875 C 29.144531 -0.710938 25.515625 0.515625 21.390625 0.515625 C 18.742188 0.515625 16.445312 -0.0351562 14.5 -1.140625 L 12.671875 4.984375 C 12.515625 5.410156 12.4375 5.8125 12.4375 6.1875 C 12.4375 6.613281 12.53125 6.96875 12.71875 7.25 C 12.914062 7.539062 13.164062 7.816406 13.46875 8.078125 C 13.78125 8.390625 13.984375 8.640625 14.078125 8.828125 C 14.171875 9.015625 14.179688 9.242188 14.109375 9.515625 C 13.953125 10.015625 13.585938 10.367188 13.015625 10.578125 C 12.441406 10.785156 11.5625 10.890625 10.375 10.890625 L -2.75 10.890625 C -3.75 10.890625 -4.46875 10.726562 -4.90625 10.40625 C -5.34375 10.082031 -5.46875 9.671875 -5.28125 9.171875 C -5.195312 8.867188 -5.0625 8.617188 -4.875 8.421875 C -4.6875 8.234375 -4.414062 8.0625 -4.0625 7.90625 C -3.488281 7.53125 -3.03125 7.140625 -2.6875 6.734375 C -2.34375 6.335938 -2.039062 5.695312 -1.78125 4.8125 L 6.59375 -22.640625 C 6.707031 -22.984375 6.765625 -23.269531 6.765625 -23.5 C 6.765625 -23.925781 6.664062 -24.257812 6.46875 -24.5 C 6.28125 -24.75 6 -25.007812 5.625 -25.28125 C 5.238281 -25.582031 4.96875 -25.847656 4.8125 -26.078125 C 4.664062 -26.304688 4.648438 -26.613281 4.765625 -27 C 4.992188 -27.875 6.195312 -28.644531 8.375 -29.3125 C 10.550781 -29.988281 12.820312 -30.328125 15.1875 -30.328125 C 16.875 -30.328125 18.257812 -29.90625 19.34375 -29.0625 C 20.4375 -28.21875 21.0625 -27.050781 21.21875 -25.5625 C 23.8125 -28.894531 26.734375 -30.5625 29.984375 -30.5625 Z M 23.328125 -13.53125 C 24.242188 -16.925781 24.703125 -19.273438 24.703125 -20.578125 C 24.703125 -21.378906 24.578125 -21.90625 24.328125 -22.15625 C 24.085938 -22.40625 23.738281 -22.53125 23.28125 -22.53125 C 22.9375 -22.53125 22.492188 -22.367188 21.953125 -22.046875 C 21.421875 -21.722656 20.882812 -21.175781 20.34375 -20.40625 L 15.828125 -5.390625 C 16.285156 -4.929688 16.835938 -4.703125 17.484375 -4.703125 C 18.515625 -4.703125 19.5 -5.285156 20.4375 -6.453125 C 21.375 -7.617188 22.335938 -9.976562 23.328125 -13.53125 Z M 23.328125 -13.53125 "/></g></g></g></svg>