<?xml version="1.0" encoding="UTF-8" standalone="no"?>
<svg
   xmlns:dc="http://purl.org/dc/elements/1.1/"
   xmlns:cc="http://creativecommons.org/ns#"
   xmlns:rdf="http://www.w3.org/1999/02/22-rdf-syntax-ns#"
   xmlns:svg="http://www.w3.org/2000/svg"
   xmlns="http://www.w3.org/2000/svg"
   xmlns:sodipodi="http://sodipodi.sourceforge.net/DTD/sodipodi-0.dtd"
   xmlns:inkscape="http://www.inkscape.org/namespaces/inkscape"
   id="Layer_1"
   data-name="Layer 1"
   viewBox="0 0 122.88 102.36"
   version="1.1"
   sodipodi:docname="store-icon-white.svg"
   inkscape:version="1.0.2 (e86c870879, 2021-01-15)">
  <metadata
     id="metadata13">
    <rdf:RDF>
      <cc:Work
         rdf:about="">
        <dc:format>image/svg+xml</dc:format>
        <dc:type
           rdf:resource="http://purl.org/dc/dcmitype/StillImage" />
        <dc:title>store</dc:title>
      </cc:Work>
    </rdf:RDF>
  </metadata>
  <sodipodi:namedview
     pagecolor="#ffffff"
     bordercolor="#666666"
     borderopacity="1"
     objecttolerance="10"
     gridtolerance="10"
     guidetolerance="10"
     inkscape:pageopacity="0"
     inkscape:pageshadow="2"
     inkscape:window-width="1920"
     inkscape:window-height="1018"
     id="namedview11"
     showgrid="false"
     inkscape:zoom="4.5716527"
     inkscape:cx="107.7308"
     inkscape:cy="38.73913"
     inkscape:window-x="0"
     inkscape:window-y="30"
     inkscape:window-maximized="1"
     inkscape:current-layer="Layer_1" />
  <defs
     id="defs4">
    <style
       id="style2">.cls-1{fill-rule:evenodd;}</style>
  </defs>
  <title
     id="title6">store</title>
  <path
     class="cls-1"
     d="m 69.19,77.45 c 1.559192,0 2.339756,1.884992 1.237374,2.987374 C 69.324992,81.539756 67.44,80.759192 67.44,79.2 c 0,-0.966498 0.783502,-1.75 1.75,-1.75 z M 22.11,22.84 H 3.44 v 3 c 0.010901,4.656115 3.7739532,8.432559 8.43,8.46 2.32,0 6.24,-0.95 7.77,-2.49 1.588996,-1.591602 2.477944,-3.750991 2.47,-6 v -3 z m -17.81,-3 h 18.34 l 3,-16.93 h -14 L 4.3,19.82 Z M 74.43,2.89 75.7,19.82 h 20.51 l -3.46,-16.93 -6.496433,0 z M 71.69,19.82 70.43,2.89 h -18 l -1.25,16.93 z m -24.52,0 1.24,-16.93 H 29.66 l -3,16.93 z m 49.57,-16.93 3.45,16.93 h 18.29 L 110.57,2.89 Z m 4,20 v 3 c -0.008,2.249009 0.881,4.408398 2.47,6 1.53,1.54 5.45,2.49 7.77,2.49 4.65605,-0.02744 8.4191,-3.803885 8.43,-8.46 v -3 z M 76,22.84 v 3 c -0.0086,2.251106 0.884508,4.411932 2.48,6 1.53,1.54 5.44,2.49 7.76,2.49 2.32,0 6.23,-0.95 7.76,-2.49 1.595492,-1.588068 2.488633,-3.748894 2.48,-6 v -3 z m -24.82,0 v 3 c -0.0086,2.251106 0.884508,4.411932 2.48,6 1.53,1.54 5.44,2.49 7.76,2.49 2.32,0 6.23,-0.95 7.76,-2.49 1.595492,-1.588068 2.488633,-3.748894 2.48,-6 v -3 z m -24.82,0 v 3 c -0.0086,2.251106 0.884508,4.411932 2.48,6 1.53,1.54 5.44,2.49 7.76,2.49 2.32,0 6.23,-0.95 7.76,-2.49 1.595492,-1.588068 2.488633,-3.748894 2.48,-6 v -3 z m 79.71,13.79 c -1.25,-0.58 -4.33,-1.38 -5.3,-2.35 -0.846549,-0.848723 -1.561149,-1.8195 -2.12,-2.88 -0.558851,1.0605 -1.273451,2.031277 -2.12,2.88 -2.14,2.14 -7,3.46 -10.29,3.46 -3.29,0 -8.13,-1.32 -10.24,-3.46 -0.846549,-0.848723 -1.561149,-1.8195 -2.12,-2.88 -0.558851,1.0605 -1.273451,2.031277 -2.12,2.88 -2.14,2.14 -7,3.46 -10.29,3.46 -3.29,0 -8.15,-1.32 -10.29,-3.46 -0.867813,-0.844511 -1.602804,-1.815508 -2.18,-2.88 -0.558851,1.0605 -1.273451,2.031277 -2.12,2.88 -2.14,2.14 -7,3.46 -10.29,3.46 -3.29,0 -8.15,-1.32 -10.29,-3.46 -0.846549,-0.848723 -1.561149,-1.8195 -2.12,-2.88 -0.558851,1.0605 -1.273451,2.031277 -2.12,2.88 -1.41,1.41 -5.12,2.46 -7.08,3 -0.426667,0.05333 -0.866667,0.09333 -1.32,0.12 v 58.46 c 0.001,0.296644 0.11972,0.58076 0.33,0.79 0.21437,0.216055 0.505646,0.338319 0.81,0.34 h 45 V 56.62 c 0.011,-5.374689 4.365311,-9.728998 9.74,-9.74 h 16.1 c 5.370784,0.0165 9.71902,4.369202 9.73,9.74 V 97 h 12.68 c 0.30133,-0.0021 0.58934,-0.124531 0.8,-0.34 v 0 c 0.2057,-0.211466 0.32055,-0.494991 0.32,-0.79 V 37.48 37.16 c -1.04693,-0.109997 -2.08573,-0.287027 -3.11,-0.53 z M 64.33,97 H 90.85 V 56.62 C 90.839035,53.741628 88.508372,51.410965 85.63,51.4 H 69.55 c -2.878372,0.01096 -5.209035,2.341628 -5.22,5.22 z M 30,54.32 h 16.1 c 1.249791,-1.2e-5 2.264494,1.010221 2.27,2.26 v 23.93 c 0,1.253686 -1.016314,2.27 -2.27,2.27 H 30 c -1.253686,0 -2.27,-1.016314 -2.27,-2.27 V 56.58 c 0.0055,-1.249779 1.020209,-2.260012 2.27,-2.26 z m 13.84,4.53 H 32.25 v 19.4 H 43.84 Z M 8.37,37 C 6.525561,36.568722 4.8323144,35.646076 3.47,34.33 1.237812,32.109956 -0.01195184,29.088193 0,25.94 v -4.64 0 C 0.00182703,21.066228 0.06015083,20.836364 0.17,20.63 L 9.45,0.69 C 9.6842967,0.26317531 10.1331,-0.00150329 10.62,0 h 100.9 c 0.51533,0.00162311 0.98478,0.29648564 1.21,0.76 l 10,19.83 c 0.11433,0.191114 0.1796,0.407543 0.19,0.63 v 0 c 0.005,0.04319 0.005,0.08681 0,0.13 v 4.58 c -0.001,3.130869 -1.25013,6.132165 -3.47,8.34 -1.35333,1.327631 -3.05617,2.243213 -4.91,2.64 0.0402,0.183943 0.0603,0.371711 0.06,0.56 v 58.39 c -0.007,1.720839 -0.69811,3.368258 -1.92,4.58 v 0 c -1.21828,1.22313 -2.87366,1.91047 -4.6,1.91 H 14.83 c -1.72287,-0.002 -3.374169,-0.68933 -4.59,-1.91 v 0 C 9.018978,99.228498 8.3315316,97.580067 8.33,95.86 V 37.48 c -0.015278,-0.176336 -0.015278,-0.353664 0,-0.53 z"
     id="path8"
     sodipodi:nodetypes="sssscccccccccccccccccccccccccccccccccccccccccccccscccccccscccccccsccccccccscccscccscccccccccccccccsscccccccccccccccsssscccccccccccsccccccssccccccssccsscccc"
     style="fill:#f7f7f7;fill-opacity:1" />
</svg>
